<?xml version="1.0" standalone="no"?><!DOCTYPE svg PUBLIC "-//W3C//DTD SVG 1.1//EN" "http://www.w3.org/Graphics/SVG/1.1/DTD/svg11.dtd"><svg t="1571731237424" class="icon" viewBox="0 0 1288 1024" version="1.1" xmlns="http://www.w3.org/2000/svg" p-id="4590" xmlns:xlink="http://www.w3.org/1999/xlink" width="60.375" height="48"><defs><style type="text/css"></style></defs><path d="M1288.258065 412.903226C1288.258065 330.322581 1222.193548 264.258065 1139.612903 264.258065S990.967742 330.322581 990.967742 412.903226c0 13.212903 3.303226 26.425806 6.606452 39.638709l-89.187097 39.63871L736.619355 264.258065c33.032258-26.425806 56.154839-69.367742 56.154839-115.612904C792.774194 66.064516 726.709677 0 644.129032 0S495.483871 66.064516 495.483871 148.645161c0 49.548387 23.122581 92.490323 62.76129 118.916129L406.296774 495.483871l-112.309677-49.548387c3.303226-9.909677 3.303226-23.122581 3.303226-33.032258C297.290323 330.322581 231.225806 264.258065 148.645161 264.258065S0 330.322581 0 412.903226c0 79.277419 62.76129 142.03871 138.735484 148.645161l148.645161 462.451613h716.8l148.645161-462.451613c72.670968-6.606452 135.432258-69.367742 135.432259-148.645161zM644.129032 66.064516C690.374194 66.064516 726.709677 102.4 726.709677 148.645161S690.374194 231.225806 644.129032 231.225806 561.548387 194.890323 561.548387 148.645161 597.883871 66.064516 644.129032 66.064516zM66.064516 412.903226C66.064516 366.658065 102.4 330.322581 148.645161 330.322581S231.225806 366.658065 231.225806 412.903226 194.890323 495.483871 148.645161 495.483871 66.064516 459.148387 66.064516 412.903226z m901.780645 541.729032H323.716129L204.8 551.63871c26.425806-9.909677 49.548387-29.729032 66.064516-52.851613l158.554839 66.064516 181.677419-270.864516c9.909677 3.303226 23.122581 3.303226 33.032258 3.303226 13.212903 0 26.425806-3.303226 36.335484-6.606452l214.709678 270.864516 125.52258-62.76129c16.516129 19.819355 36.335484 39.63871 62.761291 49.548387l-115.612904 406.296774zM1139.612903 495.483871c-46.245161 0-82.580645-36.335484-82.580645-82.580645s36.335484-82.580645 82.580645-82.580645 82.580645 36.335484 82.580645 82.580645-36.335484 82.580645-82.580645 82.580645z" fill="#ffffff" p-id="4591"></path></svg>